# xmcd CD database file
#
# Track frame offsets:
#	150
#	39959
#	71831
#	87402
#	118673
#	138806
#
# Disc length: 2333 seconds
#
# Revision: 1
# Processed by: cddbd v1.5.1PL0 Copyright (c) Steve Scherf et al.
# Submitted via: CDex 1.51
#
DISCID=4c091b06
DTITLE=TAKEHIRO HONDA - This is Honda
DYEAR=1972
DGENRE=Jazz
TTITLE0=You Don't Know What Love Is
TTITLE1=Bye Bye Blackbird
TTITLE2=Round About Midnight
TTITLE3=Softly As In Morining Sunrise
TTITLE4=When Sunny Gets Blue
TTITLE5=Secret Love
EXTD=YEAR: 1972
EXTT0=
EXTT1=
EXTT2=
EXTT3=
EXTT4=
EXTT5=
PLAYORDER=
